<?xml version="1.0" encoding="UTF-8"?>
<svg id="Layer_2" data-name="Layer 2" xmlns="http://www.w3.org/2000/svg" viewBox="0 0 44.54 34.27">
  <defs>
    <style>
      .cls-1 {
        fill: #000;
        stroke-width: 0px;
      }
    </style>
  </defs>
  <g id="Layer_14" data-name="Layer 14">
    <path class="cls-1" d="M44.54,0h-10.25c0,3.8-3.09,6.89-6.89,6.89V0h-10.25C7.69,0,0,7.69,0,17.14h10.25c0-3.8,3.09-6.89,6.89-6.89v6.87C7.69,17.12,0,24.81,0,34.27h10.25c0-3.8,3.09-6.89,6.89-6.89v6.89h10.25v-6.89c3.8,0,6.89,3.09,6.89,6.89h10.25c0-9.34-7.51-16.95-16.8-17.13,9.29-.18,16.8-7.8,16.8-17.13Z"/>
  </g>
</svg>