<?xml version="1.0" encoding="UTF-8"?>
<svg id="Layer_2" data-name="Layer 2" xmlns="http://www.w3.org/2000/svg" viewBox="0 0 164.77 34.54">
  <defs>
    <style>
      .cls-1 {
        fill: #000;
        stroke-width: 0px;
      }
    </style>
  </defs>
  <g id="Layer_14" data-name="Layer 14">
    <g>
      <path class="cls-1" d="M44.54.13h-10.25c0,3.8-3.09,6.89-6.89,6.89V.13h-10.25C7.69.13,0,7.82,0,17.27h10.25c0-3.8,3.09-6.89,6.89-6.89v6.87C7.69,17.25,0,24.94,0,34.39h10.25c0-3.8,3.09-6.89,6.89-6.89v6.89h10.25v-6.89c3.8,0,6.89,3.09,6.89,6.89h10.25c0-9.34-7.51-16.95-16.8-17.13,9.29-.18,16.8-7.8,16.8-17.13Z"/>
      <path class="cls-1" d="M65.49.17l-5.99,14.82h3.04l1.05-2.76h6.08l1.05,2.76h3.06L67.85.17h-2.36ZM64.51,9.82l2.14-5.59,2.12,5.59h-4.25Z"/>
      <path class="cls-1" d="M78.37,9.38c0-.77.19-1.34.56-1.71.37-.36.85-.55,1.44-.55.28,0,.53.04.75.12.22.08.4.21.56.39l1.73-2c-.32-.37-.68-.63-1.06-.79-.39-.16-.83-.24-1.34-.24-1.14,0-2.01.36-2.61,1.09,0,0-.01.02-.02.03v-.91h-2.76v10.18h2.76v-5.61Z"/>
      <polygon class="cls-1" points="88.93 14.99 88.93 7.23 91.31 7.23 91.31 4.81 88.93 4.81 88.93 .57 86.17 .57 86.17 4.81 83.79 4.81 83.79 7.23 86.17 7.23 86.17 14.99 88.93 14.99"/>
      <rect class="cls-1" x="93.06" y="4.81" width="2.8" height="10.18"/>
      <path class="cls-1" d="M94.48,3.16c.46,0,.84-.15,1.13-.45.29-.3.43-.68.43-1.13s-.14-.81-.43-1.12c-.29-.31-.66-.46-1.13-.46s-.82.15-1.12.46c-.29.31-.44.68-.44,1.12s.15.83.44,1.13c.3.3.67.45,1.12.45Z"/>
      <path class="cls-1" d="M108.05,12.58c.48-.81.72-1.72.72-2.72s-.24-1.9-.73-2.7c-.48-.8-1.14-1.43-1.96-1.9-.82-.46-1.75-.7-2.79-.7s-1.95.24-2.77.71c-.82.47-1.47,1.1-1.95,1.9-.48.79-.72,1.69-.72,2.69s.24,1.92.72,2.73c.48.81,1.13,1.45,1.95,1.92.82.47,1.75.71,2.77.71s1.97-.23,2.8-.71c.83-.47,1.48-1.11,1.96-1.93ZM105.6,11.3c-.22.41-.53.73-.93.97-.4.24-.86.36-1.38.36s-.96-.12-1.35-.36c-.39-.24-.7-.56-.92-.97-.22-.41-.33-.88-.33-1.41s.11-1,.33-1.41c.22-.41.52-.73.92-.96.39-.23.84-.35,1.35-.35s.97.12,1.36.35c.39.23.7.55.93.96.23.41.35.88.35,1.41s-.11,1.01-.33,1.41Z"/>
      <path class="cls-1" d="M126.79,14.99v-6.43c0-.83-.18-1.54-.54-2.13-.36-.59-.84-1.04-1.44-1.36-.6-.32-1.29-.47-2.04-.47s-1.45.17-2.07.49c-.5.27-.9.64-1.25,1.08-.32-.45-.7-.83-1.19-1.1-.58-.32-1.22-.47-1.92-.47-.74,0-1.41.16-2,.47-.32.17-.6.39-.84.64v-.9h-2.76v10.18h2.76v-5.99c0-.41.09-.75.26-1.03.18-.28.41-.5.7-.64.29-.15.61-.22.98-.22.55,0,1,.17,1.37.5.37.33.55.79.55,1.38v6.01h2.78v-5.99c0-.41.09-.75.26-1.03.18-.28.41-.5.7-.64.29-.15.62-.22,1-.22.53,0,.98.17,1.35.5.37.33.55.79.55,1.38v6.01h2.8Z"/>
      <polygon class="cls-1" points="73 19.49 69.41 19.49 63.49 26.19 63.49 19.49 60.62 19.49 60.62 34.31 63.49 34.31 63.49 26.98 69.58 34.31 73.21 34.31 66.63 26.55 73 19.49"/>
      <path class="cls-1" d="M82.76,24.41c-.59-.33-1.27-.5-2.04-.5s-1.46.17-2.07.51c-.32.18-.6.4-.84.65v-6.01h-2.76v15.24h2.76v-5.84c0-.39.09-.75.26-1.06.18-.32.42-.56.73-.73.31-.17.66-.25,1.05-.25.59,0,1.08.19,1.45.57.38.38.57.87.57,1.48v5.84h2.78v-6.47c0-.77-.17-1.45-.51-2.04-.34-.59-.8-1.05-1.39-1.38Z"/>
      <path class="cls-1" d="M92.49,23.92c-1.14,0-2.01.36-2.61,1.09,0,0-.01.02-.02.03v-.91h-2.76v10.18h2.76v-5.61c0-.77.19-1.34.56-1.71.37-.36.85-.55,1.44-.55.28,0,.53.04.75.12.22.08.4.21.56.39l1.73-2c-.32-.37-.68-.63-1.06-.79-.39-.16-.83-.24-1.34-.24Z"/>
      <path class="cls-1" d="M102.25,29.97c0,.63-.16,1.12-.48,1.48-.32.35-.77.53-1.35.53-.38,0-.71-.08-.99-.23-.28-.15-.49-.38-.63-.68-.14-.3-.21-.66-.21-1.09v-5.84h-2.78v5.9c0,.88.2,1.67.59,2.34.39.67.94,1.2,1.64,1.57.7.37,1.5.56,2.38.56s1.68-.19,2.37-.56c.7-.37,1.24-.9,1.63-1.57.39-.68.59-1.46.59-2.34v-5.9h-2.76v5.84Z"/>
      <path class="cls-1" d="M110.16,26.43c.21-.13.53-.19.95-.19s.85.09,1.23.26c.39.18.73.45,1.04.81l1.67-1.69c-.45-.59-1.02-1.03-1.7-1.32-.68-.29-1.44-.43-2.29-.43s-1.5.13-2.09.39c-.59.26-1.05.63-1.37,1.12-.32.49-.48,1.05-.48,1.7s.13,1.12.38,1.52c.25.39.57.7.96.92.39.22.8.39,1.23.52.44.13.85.25,1.23.36.39.11.71.24.96.39.25.15.38.36.38.64,0,.24-.12.43-.36.56-.24.13-.58.2-1.03.2-.55,0-1.05-.1-1.52-.29-.46-.2-.86-.5-1.2-.91l-1.67,1.67c.34.39.74.73,1.2,1.02.46.29.97.51,1.53.65.55.15,1.13.22,1.72.22,1.22,0,2.19-.29,2.91-.87.72-.58,1.07-1.37,1.07-2.37,0-.62-.12-1.12-.37-1.52-.25-.39-.56-.71-.95-.95-.39-.24-.79-.43-1.22-.56-.43-.13-.84-.26-1.23-.37-.39-.11-.71-.24-.95-.37-.24-.13-.36-.33-.36-.58,0-.22.11-.4.32-.53Z"/>
      <polygon class="cls-1" points="121.25 19.89 118.49 19.89 118.49 24.13 116.1 24.13 116.1 26.55 118.49 26.55 118.49 34.31 121.25 34.31 121.25 26.55 123.63 26.55 123.63 24.13 121.25 24.13 121.25 19.89"/>
      <path class="cls-1" d="M132.59,25.13c-.29-.3-.6-.57-.99-.77-.58-.29-1.22-.44-1.94-.44-.94,0-1.78.23-2.52.7-.74.46-1.32,1.1-1.74,1.9-.42.8-.63,1.71-.63,2.72s.21,1.9.63,2.7c.42.8,1,1.43,1.74,1.9.74.46,1.57.7,2.5.7.73,0,1.39-.15,1.97-.44.39-.19.7-.46.98-.76v.99h2.78v-10.18h-2.78v1ZM132.04,31.19c-.48.52-1.1.78-1.88.78-.49,0-.93-.12-1.33-.36-.39-.24-.7-.56-.92-.97-.22-.41-.33-.88-.33-1.43s.11-1,.33-1.41c.22-.41.52-.73.91-.97.39-.24.83-.36,1.34-.36s.97.12,1.35.35c.38.23.68.56.91.98.22.42.34.9.34,1.43,0,.79-.24,1.44-.72,1.96Z"/>
      <rect class="cls-1" x="137.98" y="19.07" width="2.76" height="15.24"/>
      <path class="cls-1" d="M150.67,24.55c-.76-.44-1.62-.65-2.57-.65-1.01,0-1.93.23-2.74.7-.82.46-1.46,1.1-1.93,1.9-.47.8-.71,1.71-.71,2.72s.24,1.94.72,2.74c.48.8,1.13,1.43,1.97,1.9.84.46,1.79.7,2.86.7.83,0,1.6-.15,2.3-.44.7-.29,1.31-.74,1.83-1.33l-1.64-1.64c-.31.36-.67.63-1.1.8-.42.17-.89.25-1.41.25-.58,0-1.08-.12-1.52-.36-.44-.24-.77-.59-1-1.04-.09-.18-.15-.38-.2-.58l7.42-.02c.06-.22.09-.43.11-.62.01-.19.02-.38.02-.56,0-.98-.21-1.86-.63-2.64-.42-.77-1.01-1.38-1.77-1.81ZM145.53,28.13c.05-.19.1-.37.18-.53.22-.44.53-.78.94-1.02.41-.24.89-.36,1.43-.36.52,0,.96.11,1.31.32.35.21.63.52.82.93.09.2.16.42.22.66h-4.9Z"/>
      <polygon class="cls-1" points="161.82 24.13 159.35 30.57 156.87 24.13 153.83 24.13 158.32 34.31 160.31 34.31 164.77 24.13 161.82 24.13"/>
    </g>
  </g>
</svg>